Alegreya Sans SC-Italic.ufo
<glyph name="exclam" format="1">
  <advance width="261"/>
  <unicode hex="0021"/>
  <outline>
    <contour>
      <point x="166" y="657" type="line"/>
      <point x="157" y="648" type="line"/>
      <point x="104" y="221" type="line"/>
      <point x="111" y="211" type="line"/>
      <point x="157" y="216" type="line"/>
      <point x="231" y="650" type="line"/>
      <point x="224" y="660" type="line"/>
    </contour>
    <component base="period" xOffset="21"/>
  </outline>
</glyph>
<glyph name="slash" format="1">
  <advance width="288"/>
  <unicode hex="002F"/>
  <outline>
    <contour>
      <point x="258" y="678" type="line"/>
      <point x="-2" y="-105" type="line"/>
      <point x="3" y="-113" type="line"/>
      <point x="55" y="-113" type="line"/>
      <point x="314" y="669" type="line"/>
      <point x="309" y="678" type="line"/>
    </contour>
  </outline>
</glyph>
<glyph name="seven" format="1">
  <advance width="416"/>
  <unicode hex="0037"/>
  <outline>
    <contour>
      <point x="48" y="436" type="line"/>
      <point x="53" y="428" type="line"/>
      <point x="128" y="435" type="line"/>
      <point x="340" y="435" type="line"/>
      <point x="44" y="-71" type="line"/>
      <point x="47" y="-83" type="line"/>
      <point x="107" y="-102" type="line"/>
      <point x="165" y="14" type="line"/>
      <point x="415" y="444" type="line"/>
      <point x="420" y="500" type="line"/>
      <point x="378" y="498" type="line"/>
      <point x="149" y="498" type="line"/>
      <point x="62" y="500" type="line"/>
    </contour>
  </outline>
</glyph>
<glyph name="B" format="1">
  <advance width="512"/>
  <unicode hex="0042"/>
  <outline>
    <contour>
      <point x="145" y="640" type="line"/>
      <point x="174" y="579" type="line"/>
      <point x="215" y="579"/>
      <point x="255" y="579"/>
      <point x="290" y="579" type="curve" smooth="yes"/>
      <point x="361" y="579"/>
      <point x="393" y="552"/>
      <point x="393" y="495" type="curve" smooth="yes"/>
      <point x="393" y="418"/>
      <point x="356" y="373"/>
      <point x="286" y="357" type="curve"/>
      <point x="137" y="361" type="line"/>
      <point x="129" y="296" type="line"/>
      <point x="290" y="297" type="line"/>
      <point x="358" y="289"/>
      <point x="394" y="255"/>
      <point x="394" y="197" type="curve" smooth="yes"/>
      <point x="394" y="109"/>
      <point x="330" y="59"/>
      <point x="216" y="59" type="curve" smooth="yes"/>
      <point x="189" y="59"/>
      <point x="144" y="62"/>
      <point x="114" y="65" type="curve"/>
      <point x="64" y="0" type="line"/>
      <point x="101" y="-3"/>
      <point x="178" y="-4"/>
      <point x="199" y="-4" type="curve" smooth="yes"/>
      <point x="380" y="-4"/>
      <point x="471" y="68"/>
      <point x="471" y="201" type="curve" smooth="yes"/>
      <point x="471" y="269"/>
      <point x="433" y="312"/>
      <point x="358" y="334" type="curve"/>
      <point x="429" y="364"/>
      <point x="470" y="424"/>
      <point x="470" y="508" type="curve" smooth="yes"/>
      <point x="470" y="596"/>
      <point x="410" y="642"/>
      <point x="308" y="642" type="curve"/>
    </contour>
    <contour>
      <point x="144" y="640" type="line"/>
      <point x="92" y="193" type="line"/>
      <point x="63" y="0" type="line"/>
      <point x="138" y="0" type="line"/>
      <point x="159" y="199" type="line"/>
      <point x="219" y="640" type="line"/>
    </contour>
  </outline>
</glyph>
<glyph name="C" format="1">
  <advance width="500"/>
  <unicode hex="0043"/>
  <outline>
    <contour>
      <point x="163" y="646"/>
      <point x="47" y="499"/>
      <point x="47" y="255" type="curve" smooth="yes"/>
      <point x="47" y="89"/>
      <point x="128" y="-7"/>
      <point x="271" y="-7" type="curve" smooth="yes"/>
      <point x="333" y="-7"/>
      <point x="386" y="10"/>
      <point x="444" y="43" type="curve"/>
      <point x="459" y="114" type="line"/>
      <point x="451" y="119" type="line"/>
      <point x="400" y="80"/>
      <point x="340" y="58"/>
      <point x="283" y="58" type="curve" smooth="yes"/>
      <point x="182" y="58"/>
      <point x="126" y="131"/>
      <point x="126" y="266" type="curve" smooth="yes"/>
      <point x="126" y="468"/>
      <point x="209" y="582"/>
      <point x="351" y="582" type="curve" smooth="yes"/>
      <point x="410" y="582"/>
      <point x="455" y="562"/>
      <point x="491" y="526" type="curve"/>
      <point x="500" y="528" type="line"/>
      <point x="524" y="597" type="line"/>
      <point x="481" y="628"/>
      <point x="425" y="646"/>
      <point x="360" y="646" type="curve" smooth="yes"/>
    </contour>
    <contour>
      <point x="298" y="0" type="move" name="bottom"/>
    </contour>
    <contour>
      <point x="337" y="640" type="move" name="top"/>
    </contour>
  </outline>
</glyph>
<glyph name="G" format="1">
  <advance width="575"/>
  <unicode hex="0047"/>
  <outline>
    <contour>
      <point x="167" y="646"/>
      <point x="45" y="501"/>
      <point x="45" y="248" type="curve" smooth="yes"/>
      <point x="45" y="88"/>
      <point x="127" y="-7"/>
      <point x="289" y="-7" type="curve" smooth="yes"/>
      <point x="359" y="-7"/>
      <point x="412" y="5"/>
      <point x="487" y="31" type="curve"/>
      <point x="501" y="170" type="line"/>
      <point x="513" y="256" type="line"/>
      <point x="443" y="250" type="line"/>
      <point x="433" y="160" type="line"/>
      <point x="420" y="82" type="line"/>
      <point x="361" y="63"/>
      <point x="330" y="58"/>
      <point x="294" y="58" type="curve" smooth="yes"/>
      <point x="177" y="58"/>
      <point x="122" y="121"/>
      <point x="122" y="255" type="curve" smooth="yes"/>
      <point x="122" y="469"/>
      <point x="208" y="582"/>
      <point x="368" y="582" type="curve" smooth="yes"/>
      <point x="425" y="582"/>
      <point x="470" y="566"/>
      <point x="526" y="527" type="curve"/>
      <point x="535" y="529" type="line"/>
      <point x="561" y="600" type="line"/>
      <point x="502" y="632"/>
      <point x="443" y="646"/>
      <point x="381" y="646" type="curve" smooth="yes"/>
    </contour>
    <contour>
      <point x="310" y="0" type="move" name="bottom"/>
    </contour>
    <contour>
      <point x="350" y="640" type="move" name="top"/>
    </contour>
  </outline>
</glyph>
<glyph name="L" format="1">
  <advance width="396"/>
  <unicode hex="004C"/>
  <outline>
    <contour>
      <point x="142" y="640" type="line"/>
      <point x="90" y="193" type="line"/>
      <point x="61" y="0" type="line"/>
      <point x="136" y="0" type="line"/>
      <point x="158" y="199" type="line"/>
      <point x="217" y="640" type="line"/>
    </contour>
    <contour>
      <point x="116" y="64" type="line"/>
      <point x="105" y="7" type="line"/>
      <point x="107" y="0" type="line"/>
      <point x="360" y="0" type="line"/>
      <point x="374" y="56" type="line"/>
      <point x="370" y="64" type="line"/>
    </contour>
    <contour>
      <point x="202" y="0" type="move" name="bottom"/>
    </contour>
    <contour>
      <point x="181" y="640" type="move" name="top"/>
    </contour>
  </outline>
</glyph>
<glyph name="S" format="1">
  <advance width="451"/>
  <unicode hex="0053"/>
  <outline>
    <contour>
      <point x="177" y="646"/>
      <point x="87" y="567"/>
      <point x="87" y="465" type="curve" smooth="yes"/>
      <point x="87" y="293"/>
      <point x="328" y="292"/>
      <point x="328" y="166" type="curve" smooth="yes"/>
      <point x="328" y="106"/>
      <point x="273" y="55"/>
      <point x="193" y="55" type="curve" smooth="yes"/>
      <point x="145" y="55"/>
      <point x="89" y="74"/>
      <point x="48" y="119" type="curve"/>
      <point x="38" y="115" type="line"/>
      <point x="19" y="38" type="line"/>
      <point x="68" y="9"/>
      <point x="132" y="-7"/>
      <point x="186" y="-7" type="curve" smooth="yes"/>
      <point x="312" y="-7"/>
      <point x="405" y="76"/>
      <point x="405" y="180" type="curve" smooth="yes"/>
      <point x="405" y="351"/>
      <point x="161" y="358"/>
      <point x="161" y="478" type="curve" smooth="yes"/>
      <point x="161" y="532"/>
      <point x="210" y="584"/>
      <point x="288" y="584" type="curve" smooth="yes"/>
      <point x="331" y="584"/>
      <point x="372" y="568"/>
      <point x="405" y="540" type="curve"/>
      <point x="418" y="544" type="line"/>
      <point x="439" y="615" type="line"/>
      <point x="388" y="638"/>
      <point x="336" y="646"/>
      <point x="298" y="646" type="curve" smooth="yes"/>
    </contour>
    <contour>
      <point x="198" y="0" type="move" name="bottom"/>
    </contour>
    <contour>
      <point x="278" y="640" type="move" name="top"/>
    </contour>
  </outline>
</glyph>
<glyph name="T" format="1">
  <advance width="467"/>
  <unicode hex="0054"/>
  <outline>
    <contour>
      <point x="247" y="630" type="line"/>
      <point x="198" y="193" type="line"/>
      <point x="169" y="0" type="line"/>
      <point x="244" y="0" type="line"/>
      <point x="265" y="199" type="line"/>
      <point x="323" y="630" type="line"/>
    </contour>
    <contour>
      <point x="80" y="640" type="line"/>
      <point x="66" y="582" type="line"/>
      <point x="71" y="575" type="line"/>
      <point x="180" y="580" type="line"/>
      <point x="379" y="580" type="line"/>
      <point x="483" y="575" type="line"/>
      <point x="497" y="633" type="line"/>
      <point x="493" y="640" type="line"/>
    </contour>
    <contour>
      <point x="206" y="0" type="move" name="bottom"/>
    </contour>
    <contour>
      <point x="251" y="321" type="move" name="center"/>
    </contour>
    <contour>
      <point x="285" y="640" type="move" name="top"/>
    </contour>
  </outline>
</glyph>
<glyph name="asciicircum" format="1">
  <advance width="423"/>
  <unicode hex="005E"/>
  <outline>
    <contour>
      <point x="220" y="491" type="line"/>
      <point x="211" y="487" type="line"/>
      <point x="9" y="129" type="line"/>
      <point x="50" y="112" type="line"/>
      <point x="58" y="117" type="line"/>
      <point x="239" y="434" type="line"/>
      <point x="245" y="434" type="line"/>
      <point x="340" y="115" type="line"/>
      <point x="384" y="125" type="line"/>
      <point x="390" y="133" type="line"/>
      <point x="282" y="491" type="line"/>
    </contour>
  </outline>
</glyph>
<glyph name="underscore" format="1">
  <advance width="451"/>
  <unicode hex="005F"/>
  <outline>
    <contour>
      <point x="-49" y="-88" type="line"/>
      <point x="-59" y="-132" type="line"/>
      <point x="-54" y="-138" type="line"/>
      <point x="416" y="-138" type="line"/>
      <point x="426" y="-93" type="line"/>
      <point x="421" y="-88" type="line"/>
    </contour>
  </outline>
</glyph>
<glyph name="b" format="1">
  <advance width="464"/>
  <unicode hex="0062"/>
  <outline>
    <contour>
      <point x="123" y="498" type="line"/>
      <point x="152" y="442" type="line"/>
      <point x="186" y="443"/>
      <point x="217" y="443"/>
      <point x="244" y="443" type="curve" smooth="yes"/>
      <point x="305" y="443"/>
      <point x="333" y="423"/>
      <point x="333" y="380" type="curve" smooth="yes"/>
      <point x="333" y="324"/>
      <point x="305" y="293"/>
      <point x="250" y="281" type="curve"/>
      <point x="123" y="285" type="line"/>
      <point x="115" y="226" type="line"/>
      <point x="252" y="227" type="line"/>
      <point x="307" y="220"/>
      <point x="336" y="196"/>
      <point x="336" y="152" type="curve" smooth="yes"/>
      <point x="336" y="86"/>
      <point x="284" y="51"/>
      <point x="195" y="51" type="curve" smooth="yes"/>
      <point x="169" y="51"/>
      <point x="134" y="54"/>
      <point x="108" y="58" type="curve"/>
      <point x="61" y="0" type="line"/>
      <point x="98" y="-2"/>
      <point x="151" y="-3"/>
      <point x="181" y="-3" type="curve" smooth="yes"/>
      <point x="329" y="-3"/>
      <point x="408" y="49"/>
      <point x="408" y="154" type="curve" smooth="yes"/>
      <point x="408" y="210"/>
      <point x="375" y="244"/>
      <point x="314" y="259" type="curve"/>
      <point x="372" y="282"/>
      <point x="407" y="327"/>
      <point x="407" y="389" type="curve" smooth="yes"/>
      <point x="407" y="461"/>
      <point x="353" y="499"/>
      <point x="267" y="499" type="curve"/>
    </contour>
    <contour>
      <point x="123" y="498" type="line"/>
      <point x="82" y="150" type="line"/>
      <point x="61" y="0" type="line"/>
      <point x="130" y="0" type="line"/>
      <point x="146" y="156" type="line"/>
      <point x="193" y="498" type="line"/>
    </contour>
  </outline>
</glyph>
<glyph name="c" format="1">
  <advance width="445"/>
  <unicode hex="0063"/>
  <outline>
    <contour>
      <point x="143" y="502"/>
      <point x="45" y="393"/>
      <point x="45" y="203" type="curve" smooth="yes"/>
      <point x="45" y="72"/>
      <point x="115" y="-6"/>
      <point x="238" y="-6" type="curve" smooth="yes"/>
      <point x="290" y="-6"/>
      <point x="332" y="7"/>
      <point x="377" y="32" type="curve"/>
      <point x="391" y="97" type="line"/>
      <point x="383" y="100" type="line"/>
      <point x="343" y="72"/>
      <point x="292" y="54"/>
      <point x="245" y="54" type="curve" smooth="yes"/>
      <point x="163" y="54"/>
      <point x="119" y="110"/>
      <point x="119" y="211" type="curve" smooth="yes"/>
      <point x="119" y="363"/>
      <point x="183" y="444"/>
      <point x="294" y="444" type="curve" smooth="yes"/>
      <point x="343" y="444"/>
      <point x="384" y="427"/>
      <point x="412" y="399" type="curve"/>
      <point x="421" y="402" type="line"/>
      <point x="443" y="467" type="line"/>
      <point x="408" y="490"/>
      <point x="359" y="502"/>
      <point x="307" y="502" type="curve" smooth="yes"/>
    </contour>
    <contour>
      <point x="257" y="-1" type="move" name="bottom"/>
    </contour>
    <contour>
      <point x="276" y="498" type="move" name="top"/>
    </contour>
  </outline>
</glyph>
<glyph name="d" format="1">
  <advance width="549"/>
  <unicode hex="0064"/>
  <outline>
    <contour>
      <point x="123" y="498" type="line"/>
      <point x="175" y="437" type="line"/>
      <point x="199" y="439"/>
      <point x="278" y="441"/>
      <point x="297" y="441" type="curve" smooth="yes"/>
      <point x="388" y="441"/>
      <point x="436" y="392"/>
      <point x="436" y="290" type="curve" smooth="yes"/>
      <point x="436" y="134"/>
      <point x="365" y="53"/>
      <point x="246" y="53" type="curve" smooth="yes"/>
      <point x="225" y="53"/>
      <point x="152" y="56"/>
      <point x="125" y="59" type="curve"/>
      <point x="61" y="0" type="line"/>
      <point x="106" y="-3"/>
      <point x="199" y="-5"/>
      <point x="232" y="-5" type="curve"/>
      <point x="411" y="-5"/>
      <point x="509" y="113"/>
      <point x="509" y="304" type="curve" smooth="yes"/>
      <point x="509" y="430"/>
      <point x="434" y="502"/>
      <point x="306" y="502" type="curve"/>
    </contour>
    <contour>
      <point x="123" y="498" type="line"/>
      <point x="82" y="150" type="line"/>
      <point x="61" y="0" type="line"/>
      <point x="131" y="0" type="line"/>
      <point x="147" y="156" type="line"/>
      <point x="193" y="498" type="line"/>
    </contour>
    <contour>
      <point x="250" y="249" type="move" name="center"/>
    </contour>
    <contour>
      <point x="290" y="498" type="move" name="top"/>
    </contour>
  </outline>
</glyph>
<glyph name="h" format="1">
  <advance width="576"/>
  <unicode hex="0068"/>
  <outline>
    <contour>
      <point x="451" y="498" type="line"/>
      <point x="411" y="150" type="line"/>
      <point x="389" y="0" type="line"/>
      <point x="459" y="0" type="line"/>
      <point x="475" y="156" type="line"/>
      <point x="521" y="498" type="line"/>
    </contour>
    <contour>
      <point x="123" y="498" type="line"/>
      <point x="83" y="150" type="line"/>
      <point x="61" y="0" type="line"/>
      <point x="131" y="0" type="line"/>
      <point x="147" y="156" type="line"/>
      <point x="193" y="498" type="line"/>
    </contour>
    <contour>
      <point x="148" y="219" type="line"/>
      <point x="283" y="220" type="line"/>
      <point x="428" y="220" type="line"/>
      <point x="436" y="282" type="line"/>
      <point x="296" y="281" type="line"/>
      <point x="155" y="282" type="line"/>
    </contour>
    <contour>
      <point x="319" y="249" type="move" name="center"/>
    </contour>
    <contour>
      <point x="320" y="498" type="move" name="top"/>
    </contour>
  </outline>
</glyph>
<glyph name="l" format="1">
  <advance width="364"/>
  <unicode hex="006C"/>
  <outline>
    <contour>
      <point x="121" y="498" type="line"/>
      <point x="81" y="150" type="line"/>
      <point x="59" y="0" type="line"/>
      <point x="129" y="0" type="line"/>
      <point x="145" y="156" type="line"/>
      <point x="192" y="498" type="line"/>
    </contour>
    <contour>
      <point x="109" y="59" type="line"/>
      <point x="99" y="6" type="line"/>
      <point x="101" y="0" type="line"/>
      <point x="312" y="0" type="line"/>
      <point x="324" y="53" type="line"/>
      <point x="320" y="59" type="line"/>
    </contour>
    <contour>
      <point x="193" y="0" type="move" name="bottom"/>
    </contour>
    <contour>
      <point x="157" y="498" type="move" name="top"/>
    </contour>
  </outline>
</glyph>
<glyph name="n" format="1">
  <advance width="577"/>
  <unicode hex="006E"/>
  <outline>
    <contour>
      <point x="457" y="495" type="line"/>
      <point x="410" y="111" type="line"/>
      <point x="404" y="111" type="line"/>
      <point x="197" y="498" type="line"/>
      <point x="124" y="498" type="line"/>
      <point x="82" y="147" type="line"/>
      <point x="61" y="0" type="line"/>
      <point x="124" y="0" type="line"/>
      <point x="143" y="165" type="line"/>
      <point x="172" y="387" type="line"/>
      <point x="176" y="387" type="line"/>
      <point x="383" y="0" type="line"/>
      <point x="457" y="0" type="line"/>
      <point x="473" y="148" type="line"/>
      <point x="521" y="500" type="line"/>
    </contour>
    <contour>
      <point x="258" y="0" type="move" name="bottom"/>
    </contour>
    <contour>
      <point x="320" y="498" type="move" name="top"/>
    </contour>
  </outline>
</glyph>
<glyph name="o" format="1">
  <advance width="540"/>
  <unicode hex="006F"/>
  <outline>
    <contour>
      <point x="139" y="503"/>
      <point x="45" y="386"/>
      <point x="45" y="211" type="curve" smooth="yes"/>
      <point x="45" y="65"/>
      <point x="116" y="-7"/>
      <point x="240" y="-7" type="curve" smooth="yes"/>
      <point x="405" y="-7"/>
      <point x="501" y="116"/>
      <point x="501" y="290" type="curve" smooth="yes"/>
      <point x="501" y="434"/>
      <point x="430" y="503"/>
      <point x="307" y="503" type="curve"/>
    </contour>
    <contour>
      <point x="389" y="444"/>
      <point x="427" y="394"/>
      <point x="427" y="282" type="curve" smooth="yes"/>
      <point x="427" y="136"/>
      <point x="367" y="53"/>
      <point x="246" y="53" type="curve" smooth="yes"/>
      <point x="157" y="53"/>
      <point x="118" y="100"/>
      <point x="118" y="215" type="curve" smooth="yes"/>
      <point x="118" y="366"/>
      <point x="180" y="444"/>
      <point x="297" y="444" type="curve" smooth="yes"/>
    </contour>
    <contour>
      <point x="301" y="498" type="move" name="top"/>
    </contour>
  </outline>
</glyph>
<glyph name="q" format="1">
  <advance width="538"/>
  <unicode hex="0071"/>
  <outline>
    <contour>
      <point x="139" y="503"/>
      <point x="45" y="386"/>
      <point x="45" y="211" type="curve" smooth="yes"/>
      <point x="45" y="65"/>
      <point x="116" y="-7"/>
      <point x="240" y="-7" type="curve" smooth="yes"/>
      <point x="405" y="-7"/>
      <point x="501" y="116"/>
      <point x="501" y="290" type="curve" smooth="yes"/>
      <point x="501" y="434"/>
      <point x="430" y="503"/>
      <point x="307" y="503" type="curve"/>
    </contour>
    <contour>
      <point x="245" y="3" type="line"/>
      <point x="318" y="-70"/>
      <point x="412" y="-124"/>
      <point x="511" y="-150" type="curve"/>
      <point x="519" y="-149" type="line"/>
      <point x="533" y="-137"/>
      <point x="542" y="-124"/>
      <point x="554" y="-106" type="curve"/>
      <point x="553" y="-97" type="line"/>
      <point x="456" y="-79"/>
      <point x="367" y="-36"/>
      <point x="296" y="25" type="curve"/>
    </contour>
    <contour>
      <point x="389" y="444"/>
      <point x="427" y="394"/>
      <point x="427" y="282" type="curve" smooth="yes"/>
      <point x="427" y="136"/>
      <point x="367" y="53"/>
      <point x="246" y="53" type="curve" smooth="yes"/>
      <point x="157" y="53"/>
      <point x="118" y="100"/>
      <point x="118" y="215" type="curve" smooth="yes"/>
      <point x="118" y="366"/>
      <point x="180" y="444"/>
      <point x="297" y="444" type="curve" smooth="yes"/>
    </contour>
  </outline>
</glyph>
<glyph name="t" format="1">
  <advance width="421"/>
  <unicode hex="0074"/>
  <outline>
    <contour>
      <point x="210" y="486" type="line"/>
      <point x="170" y="150" type="line"/>
      <point x="148" y="0" type="line"/>
      <point x="218" y="0" type="line"/>
      <point x="234" y="156" type="line"/>
      <point x="279" y="486" type="line"/>
    </contour>
    <contour>
      <point x="71" y="498" type="line"/>
      <point x="58" y="439" type="line"/>
      <point x="63" y="432" type="line"/>
      <point x="154" y="438" type="line"/>
      <point x="321" y="438" type="line"/>
      <point x="410" y="432" type="line"/>
      <point x="422" y="491" type="line"/>
      <point x="419" y="498" type="line"/>
    </contour>
    <contour>
      <point x="234" y="0" type="move" name="bottom"/>
    </contour>
    <contour>
      <point x="226" y="249" type="move" name="center"/>
    </contour>
    <contour>
      <point x="244" y="498" type="move" name="top"/>
    </contour>
  </outline>
</glyph>
<glyph name="v" format="1">
  <advance width="480"/>
  <unicode hex="0076"/>
  <outline>
    <contour>
      <point x="423" y="498" type="line"/>
      <point x="404" y="441" type="line"/>
      <point x="219" y="70" type="line"/>
      <point x="215" y="70" type="line"/>
      <point x="138" y="444" type="line"/>
      <point x="132" y="498" type="line"/>
      <point x="60" y="498" type="line"/>
      <point x="165" y="0" type="line"/>
      <point x="248" y="0" type="line"/>
      <point x="493" y="498" type="line" smooth="yes"/>
    </contour>
  </outline>
</glyph>
<glyph name="y" format="1">
  <advance width="453"/>
  <unicode hex="0079"/>
  <outline>
    <contour>
      <point x="389" y="498" type="line"/>
      <point x="373" y="467" type="line"/>
      <point x="229" y="252" type="line"/>
      <point x="223" y="252" type="line"/>
      <point x="142" y="469" type="line"/>
      <point x="135" y="498" type="line"/>
      <point x="60" y="498" type="line"/>
      <point x="198" y="136" type="line"/>
      <point x="222" y="136" type="line"/>
      <point x="463" y="498" type="line" smooth="yes"/>
    </contour>
    <contour>
      <point x="185" y="212" type="line"/>
      <point x="177" y="143" type="line"/>
      <point x="156" y="0" type="line"/>
      <point x="226" y="0" type="line"/>
      <point x="241" y="143" type="line"/>
      <point x="252" y="212" type="line"/>
    </contour>
    <contour>
      <point x="259" y="498" type="move" name="top"/>
    </contour>
  </outline>
</glyph>
<glyph name="section" format="1">
  <advance width="420"/>
  <unicode hex="00A7"/>
  <outline>
    <contour>
      <point x="119" y="412"/>
      <point x="53" y="347"/>
      <point x="53" y="275" type="curve" smooth="yes"/>
      <point x="53" y="151"/>
      <point x="249" y="113"/>
      <point x="249" y="27" type="curve" smooth="yes"/>
      <point x="249" y="-10"/>
      <point x="209" y="-51"/>
      <point x="148" y="-51" type="curve" smooth="yes"/>
      <point x="106" y="-51"/>
      <point x="65" y="-33"/>
      <point x="32" y="0" type="curve"/>
      <point x="24" y="-5" type="line"/>
      <point x="7" y="-69" type="line"/>
      <point x="42" y="-89"/>
      <point x="93" y="-102"/>
      <point x="135" y="-102" type="curve" smooth="yes"/>
      <point x="236" y="-102"/>
      <point x="314" y="-34"/>
      <point x="314" y="43" type="curve" smooth="yes"/>
      <point x="314" y="164"/>
      <point x="119" y="203"/>
      <point x="119" y="293" type="curve" smooth="yes"/>
      <point x="119" y="331"/>
      <point x="155" y="368"/>
      <point x="229" y="395" type="curve"/>
      <point x="208" y="435" type="line"/>
    </contour>
    <contour>
      <point x="200" y="646"/>
      <point x="124" y="579"/>
      <point x="124" y="503" type="curve" smooth="yes"/>
      <point x="124" y="384"/>
      <point x="319" y="347"/>
      <point x="319" y="252" type="curve" smooth="yes"/>
      <point x="319" y="216"/>
      <point x="292" y="181"/>
      <point x="209" y="153" type="curve"/>
      <point x="232" y="115" type="line"/>
      <point x="324" y="139"/>
      <point x="384" y="202"/>
      <point x="384" y="271" type="curve" smooth="yes"/>
      <point x="384" y="396"/>
      <point x="189" y="435"/>
      <point x="189" y="518" type="curve" smooth="yes"/>
      <point x="189" y="553"/>
      <point x="227" y="594"/>
      <point x="282" y="594" type="curve" smooth="yes"/>
      <point x="310" y="594"/>
      <point x="343" y="583"/>
      <point x="376" y="558" type="curve"/>
      <point x="387" y="561" type="line"/>
      <point x="404" y="624" type="line"/>
      <point x="369" y="639"/>
      <point x="330" y="646"/>
      <point x="299" y="646" type="curve" smooth="yes"/>
    </contour>
  </outline>
</glyph>
<glyph name="logicalnot" format="1">
  <advance width="480"/>
  <unicode hex="00AC"/>
  <outline>
    <contour>
      <point x="42" y="292" type="line"/>
      <point x="32" y="245" type="line"/>
      <point x="37" y="239" type="line"/>
      <point x="372" y="239" type="line"/>
      <point x="350" y="63" type="line"/>
      <point x="356" y="57" type="line"/>
      <point x="403" y="61" type="line"/>
      <point x="431" y="285" type="line"/>
      <point x="426" y="292" type="line"/>
    </contour>
  </outline>
</glyph>
<glyph name="AE" format="1">
  <advance width="766"/>
  <unicode hex="00C6"/>
  <outline>
    <contour>
      <point x="360" y="640" type="line"/>
      <point x="-42" y="0" type="line"/>
      <point x="35" y="0" type="line"/>
      <point x="68" y="66" type="line"/>
      <point x="378" y="562" type="line"/>
      <point x="383" y="562" type="line"/>
      <point x="391" y="62" type="line"/>
      <point x="389" y="0" type="line"/>
      <point x="718" y="0" type="line"/>
      <point x="731" y="59" type="line"/>
      <point x="727" y="66" type="line"/>
      <point x="571" y="61" type="line"/>
      <point x="462" y="61" type="line"/>
      <point x="456" y="578" type="line"/>
      <point x="549" y="578" type="line"/>
      <point x="702" y="574" type="line"/>
      <point x="716" y="633" type="line"/>
      <point x="712" y="640" type="line"/>
    </contour>
    <contour>
      <point x="444" y="333" type="line"/>
      <point x="146" y="268" type="line"/>
      <point x="115" y="199" type="line"/>
      <point x="443" y="274" type="line"/>
      <point x="672" y="320" type="line"/>
      <point x="674" y="375" type="line"/>
      <point x="669" y="381" type="line"/>
    </contour>
    <contour>
      <point x="524" y="640" type="move" name="top"/>
    </contour>
  </outline>
</glyph>
<glyph name="germandbls" format="1">
  <advance width="538"/>
  <unicode hex="00DF"/>
  <outline>
    <contour>
      <point x="186" y="502"/>
      <point x="102" y="432"/>
      <point x="89" y="327" type="curve" smooth="yes"/>
      <point x="67" y="147" type="line"/>
      <point x="46" y="0" type="line"/>
      <point x="116" y="0" type="line"/>
      <point x="132" y="156" type="line"/>
      <point x="156" y="327" type="line" smooth="yes"/>
      <point x="165" y="401"/>
      <point x="217" y="445"/>
      <point x="297" y="445" type="curve" smooth="yes"/>
      <point x="332" y="445"/>
      <point x="363" y="435"/>
      <point x="398" y="415" type="curve"/>
      <point x="254" y="262" type="line"/>
      <point x="255" y="248" type="line"/>
      <point x="358" y="222"/>
      <point x="414" y="192"/>
      <point x="414" y="141" type="curve" smooth="yes"/>
      <point x="414" y="92"/>
      <point x="372" y="52"/>
      <point x="314" y="52" type="curve" smooth="yes"/>
      <point x="281" y="52"/>
      <point x="236" y="70"/>
      <point x="204" y="102" type="curve"/>
      <point x="196" y="99" type="line"/>
      <point x="180" y="29" type="line"/>
      <point x="216" y="6"/>
      <point x="267" y="-6"/>
      <point x="311" y="-6" type="curve" smooth="yes"/>
      <point x="406" y="-6"/>
      <point x="489" y="50"/>
      <point x="489" y="148" type="curve" smooth="yes"/>
      <point x="489" y="215"/>
      <point x="440" y="255"/>
      <point x="346" y="287" type="curve"/>
      <point x="491" y="442" type="line"/>
      <point x="490" y="454" type="line"/>
      <point x="424" y="487"/>
      <point x="372" y="502"/>
      <point x="310" y="502" type="curve" smooth="yes"/>
    </contour>
  </outline>
</glyph>
<glyph name="oslash" format="1">
  <advance width="540"/>
  <unicode hex="00F8"/>
  <outline>
    <contour>
      <point x="434" y="577" type="line"/>
      <point x="50" y="-62" type="line"/>
      <point x="52" y="-70" type="line"/>
      <point x="96" y="-95" type="line"/>
      <point x="480" y="543" type="line"/>
      <point x="477" y="552" type="line"/>
    </contour>
    <component base="o"/>
    <contour>
      <point x="285" y="499" type="move" name="top"/>
    </contour>
  </outline>
</glyph>
<glyph name="Iogonek" format="1">
  <advance width="259"/>
  <unicode hex="012E"/>
  <outline>
    <contour>
      <point x="78" y="19" type="line"/>
      <point x="7" y="-63"/>
      <point x="-14" y="-94"/>
      <point x="-14" y="-129" type="curve" smooth="yes"/>
      <point x="-14" y="-170"/>
      <point x="14" y="-197"/>
      <point x="53" y="-197" type="curve" smooth="yes"/>
      <point x="85" y="-197"/>
      <point x="111" y="-178"/>
      <point x="137" y="-149" type="curve"/>
      <point x="123" y="-110" type="line"/>
      <point x="120" y="-110" type="line"/>
      <point x="102" y="-134"/>
      <point x="82" y="-145"/>
      <point x="64" y="-145" type="curve" smooth="yes"/>
      <point x="48" y="-145"/>
      <point x="36" y="-136"/>
      <point x="36" y="-117" type="curve" smooth="yes"/>
      <point x="36" y="-95"/>
      <point x="54" y="-67"/>
      <point x="122" y="12" type="curve"/>
    </contour>
    <component base="I"/>
  </outline>
</glyph>
<glyph name="lcaron" format="1">
  <advance width="374"/>
  <unicode hex="013E"/>
  <outline>
    <contour>
      <point x="212" y="187" type="move"/>
    </contour>
    <component base="l"/>
    <component base="caron.alt" xOffset="84" yOffset="-210"/>
  </outline>
</glyph>
<glyph name="lslash" format="1">
  <advance width="366"/>
  <unicode hex="0142"/>
  <outline>
    <contour>
      <point x="9" y="237" type="line"/>
      <point x="11" y="196" type="line"/>
      <point x="18" y="191" type="line"/>
      <point x="291" y="312" type="line"/>
      <point x="291" y="355" type="line"/>
      <point x="285" y="358" type="line"/>
    </contour>
    <component base="l" xOffset="-8"/>
  </outline>
</glyph>
<glyph name="eng" format="1">
  <advance width="577"/>
  <unicode hex="014B"/>
  <outline>
    <contour>
      <point x="456" y="495" type="line"/>
      <point x="410" y="118" type="line"/>
      <point x="404" y="118" type="line"/>
      <point x="198" y="498" type="line"/>
      <point x="124" y="498" type="line"/>
      <point x="83" y="147" type="line"/>
      <point x="61" y="0" type="line"/>
      <point x="125" y="0" type="line"/>
      <point x="144" y="165" type="line"/>
      <point x="172" y="386" type="line"/>
      <point x="177" y="386" type="line"/>
      <point x="388" y="-0" type="line"/>
      <point x="378" y="-35"/>
      <point x="356" y="-60"/>
      <point x="318" y="-86" type="curve"/>
      <point x="317" y="-94" type="line"/>
      <point x="337" y="-124" type="line"/>
      <point x="419" y="-80"/>
      <point x="451" y="-38"/>
      <point x="461" y="38" type="curve" smooth="yes"/>
      <point x="473" y="148" type="line"/>
      <point x="521" y="500" type="line"/>
    </contour>
  </outline>
</glyph>
<glyph name="tcedilla" format="1">
  <advance width="421"/>
  <unicode hex="0163"/>
  <outline>
    <contour>
      <point x="165" y="10" type="line"/>
      <point x="134" y="-69" type="line"/>
      <point x="174" y="-98" type="line" smooth="yes"/>
      <point x="185" y="-104"/>
      <point x="192" y="-111"/>
      <point x="192" y="-123" type="curve" smooth="yes"/>
      <point x="192" y="-141"/>
      <point x="177" y="-154"/>
      <point x="157" y="-154" type="curve" smooth="yes"/>
      <point x="135" y="-154"/>
      <point x="121" y="-141"/>
      <point x="108" y="-123" type="curve"/>
      <point x="105" y="-124" type="line"/>
      <point x="93" y="-159" type="line"/>
      <point x="104" y="-175"/>
      <point x="125" y="-191"/>
      <point x="155" y="-191" type="curve" smooth="yes"/>
      <point x="199" y="-191"/>
      <point x="238" y="-162"/>
      <point x="238" y="-121" type="curve" smooth="yes"/>
      <point x="238" y="-101"/>
      <point x="229" y="-86"/>
      <point x="208" y="-72" type="curve" smooth="yes"/>
      <point x="180" y="-52" type="line"/>
      <point x="203" y="10" type="line"/>
    </contour>
    <component base="t" xOffset="-2"/>
  </outline>
</glyph>
<glyph name="Tbar" format="1">
  <advance width="467"/>
  <unicode hex="0166"/>
  <outline>
    <contour>
      <point x="118" y="346" type="line"/>
      <point x="114" y="304" type="line"/>
      <point x="120" y="298" type="line"/>
      <point x="382" y="298" type="line"/>
      <point x="385" y="340" type="line"/>
      <point x="379" y="346" type="line"/>
    </contour>
    <component base="T"/>
  </outline>
</glyph>
<glyph name="Uogonek" format="1">
  <advance width="596"/>
  <unicode hex="0172"/>
  <outline>
    <contour>
      <point x="380" y="54" type="line"/>
      <point x="313" y="-53" type="line" smooth="yes"/>
      <point x="297" y="-76"/>
      <point x="291" y="-98"/>
      <point x="291" y="-119" type="curve" smooth="yes"/>
      <point x="291" y="-165"/>
      <point x="320" y="-197"/>
      <point x="365" y="-197" type="curve" smooth="yes"/>
      <point x="398" y="-197"/>
      <point x="428" y="-178"/>
      <point x="459" y="-143" type="curve"/>
      <point x="447" y="-107" type="line"/>
      <point x="442" y="-107" type="line"/>
      <point x="422" y="-134"/>
      <point x="396" y="-147"/>
      <point x="374" y="-147" type="curve" smooth="yes"/>
      <point x="350" y="-147"/>
      <point x="339" y="-133"/>
      <point x="339" y="-112" type="curve" smooth="yes"/>
      <point x="339" y="-98"/>
      <point x="345" y="-79"/>
      <point x="356" y="-61" type="curve" smooth="yes"/>
      <point x="423" y="54" type="line"/>
    </contour>
    <component base="U"/>
  </outline>
</glyph>
<glyph name="florin" format="1">
  <advance width="276"/>
  <unicode hex="0192"/>
  <outline>
    <contour>
      <point x="201" y="615"/>
      <point x="139" y="561"/>
      <point x="128" y="463" type="curve" smooth="yes"/>
      <point x="117" y="373" type="line"/>
      <point x="46" y="373" type="line"/>
      <point x="43" y="337" type="line"/>
      <point x="47" y="332" type="line"/>
      <point x="112" y="332" type="line"/>
      <point x="94" y="180" type="line"/>
      <point x="77" y="45" type="line" smooth="yes"/>
      <point x="69" y="-27"/>
      <point x="49" y="-62"/>
      <point x="-10" y="-114" type="curve"/>
      <point x="-11" y="-121" type="line"/>
      <point x="19" y="-150" type="line"/>
      <point x="100" y="-88"/>
      <point x="127" y="-43"/>
      <point x="137" y="47" type="curve" smooth="yes"/>
      <point x="154" y="185" type="line"/>
      <point x="172" y="332" type="line"/>
      <point x="288" y="332" type="line"/>
      <point x="292" y="368" type="line"/>
      <point x="288" y="373" type="line"/>
      <point x="178" y="373" type="line"/>
      <point x="191" y="472" type="line" smooth="yes"/>
      <point x="198" y="531"/>
      <point x="227" y="567"/>
      <point x="291" y="567" type="curve" smooth="yes"/>
      <point x="307" y="567"/>
      <point x="329" y="564"/>
      <point x="352" y="554" type="curve"/>
      <point x="359" y="557" type="line"/>
      <point x="369" y="606" type="line"/>
      <point x="342" y="612"/>
      <point x="321" y="615"/>
      <point x="298" y="615" type="curve" smooth="yes"/>
    </contour>
  </outline>
</glyph>
<glyph name="ohorn" format="1">
  <advance width="542"/>
  <unicode hex="01A1"/>
  <outline>
    <contour>
      <point x="484" y="575" type="line"/>
      <point x="496" y="561"/>
      <point x="504" y="544"/>
      <point x="504" y="527" type="curve" smooth="yes"/>
      <point x="504" y="495"/>
      <point x="476" y="480"/>
      <point x="445" y="480" type="curve" smooth="yes"/>
      <point x="409" y="480"/>
      <point x="378" y="503"/>
      <point x="306" y="503" type="curve" smooth="yes"/>
      <point x="141" y="503"/>
      <point x="45" y="390"/>
      <point x="45" y="200" type="curve" smooth="yes"/>
      <point x="45" y="70"/>
      <point x="117" y="-7"/>
      <point x="239" y="-7" type="curve" smooth="yes"/>
      <point x="403" y="-7"/>
      <point x="500" y="112"/>
      <point x="500" y="298" type="curve" smooth="yes"/>
      <point x="500" y="355"/>
      <point x="486" y="403"/>
      <point x="460" y="436" type="curve"/>
      <point x="518" y="437"/>
      <point x="560" y="480"/>
      <point x="560" y="534" type="curve" smooth="yes"/>
      <point x="560" y="570"/>
      <point x="539" y="595"/>
      <point x="520" y="595" type="curve" smooth="yes"/>
      <point x="510" y="595"/>
      <point x="498" y="589"/>
      <point x="487" y="582" type="curve"/>
    </contour>
    <contour>
      <point x="162" y="52"/>
      <point x="118" y="99"/>
      <point x="118" y="203" type="curve" smooth="yes"/>
      <point x="118" y="361"/>
      <point x="174" y="445"/>
      <point x="297" y="445" type="curve" smooth="yes"/>
      <point x="384" y="445"/>
      <point x="428" y="396"/>
      <point x="428" y="292" type="curve" smooth="yes"/>
      <point x="428" y="133"/>
      <point x="370" y="52"/>
      <point x="247" y="52" type="curve" smooth="yes"/>
    </contour>
    <contour>
      <point x="285" y="498" type="move" name="top"/>
    </contour>
  </outline>
</glyph>
<glyph name="oogonek" format="1">
  <advance width="540"/>
  <unicode hex="01EB"/>
  <outline>
    <contour>
      <point x="318" y="44" type="line"/>
      <point x="256" y="-46" type="line" smooth="yes"/>
      <point x="239" y="-71"/>
      <point x="231" y="-95"/>
      <point x="231" y="-119" type="curve" smooth="yes"/>
      <point x="231" y="-164"/>
      <point x="262" y="-197"/>
      <point x="309" y="-197" type="curve" smooth="yes"/>
      <point x="344" y="-197"/>
      <point x="375" y="-178"/>
      <point x="407" y="-144" type="curve"/>
      <point x="396" y="-106" type="line"/>
      <point x="391" y="-106" type="line"/>
      <point x="369" y="-131"/>
      <point x="344" y="-146"/>
      <point x="321" y="-146" type="curve" smooth="yes"/>
      <point x="295" y="-146"/>
      <point x="281" y="-129"/>
      <point x="281" y="-105" type="curve" smooth="yes"/>
      <point x="281" y="-90"/>
      <point x="287" y="-74"/>
      <point x="299" y="-55" type="curve" smooth="yes"/>
      <point x="364" y="44" type="line"/>
    </contour>
    <component base="o"/>
  </outline>
</glyph>
<glyph name="Aringacute" format="1">
  <advance width="551"/>
  <unicode hex="01FA"/>
  <outline>
    <contour>
      <point x="297" y="638" type="line"/>
      <point x="-12" y="0" type="line" smooth="yes"/>
      <point x="63" y="0" type="line"/>
      <point x="86" y="65" type="line"/>
      <point x="320" y="557" type="line"/>
      <point x="327" y="557" type="line"/>
      <point x="419" y="61" type="line"/>
      <point x="426" y="0" type="line"/>
      <point x="502" y="0" type="line"/>
      <point x="374" y="638" type="line"/>
    </contour>
    <contour>
      <point x="275" y="238" type="line"/>
      <point x="126" y="241" type="line"/>
      <point x="117" y="175" type="line"/>
      <point x="261" y="178" type="line"/>
      <point x="418" y="175" type="line"/>
      <point x="426" y="241" type="line"/>
    </contour>
    <contour>
      <point x="293" y="294" type="move"/>
    </contour>
    <component base="ringacute" xOffset="102" yOffset="92"/>
  </outline>
</glyph>
<glyph name="breve" format="1">
  <advance width="390"/>
  <unicode hex="02D8"/>
  <outline>
    <contour>
      <point x="339" y="669" type="line"/>
      <point x="319" y="609"/>
      <point x="286" y="581"/>
      <point x="237" y="581" type="curve" smooth="yes"/>
      <point x="189" y="581"/>
      <point x="161" y="609"/>
      <point x="156" y="669" type="curve"/>
      <point x="144" y="669" type="line"/>
      <point x="120" y="640" type="line"/>
      <point x="127" y="571"/>
      <point x="159" y="526"/>
      <point x="235" y="526" type="curve" smooth="yes"/>
      <point x="301" y="526"/>
      <point x="345" y="569"/>
      <point x="368" y="640" type="curve"/>
      <point x="350" y="669" type="line"/>
    </contour>
    <contour>
      <point x="228" y="458" type="move" name="_top"/>
    </contour>
  </outline>
</glyph>
<glyph name="hungarumlaut" format="1">
  <advance width="390"/>
  <unicode hex="02DD"/>
  <outline>
    <contour>
      <point x="247" y="519" type="line"/>
      <point x="256" y="519" type="line"/>
      <point x="305" y="566"/>
      <point x="353" y="613"/>
      <point x="400" y="662" type="curve"/>
      <point x="400" y="669" type="line"/>
      <point x="365" y="695" type="line"/>
      <point x="358" y="695" type="line"/>
      <point x="314" y="643"/>
      <point x="270" y="592"/>
      <point x="222" y="542" type="curve"/>
    </contour>
    <contour>
      <point x="106" y="519" type="line"/>
      <point x="115" y="519" type="line"/>
      <point x="164" y="566"/>
      <point x="212" y="613"/>
      <point x="259" y="662" type="curve"/>
      <point x="259" y="669" type="line"/>
      <point x="224" y="695" type="line"/>
      <point x="217" y="695" type="line"/>
      <point x="173" y="643"/>
      <point x="129" y="592"/>
      <point x="81" y="542" type="curve"/>
    </contour>
    <contour>
      <point x="192" y="458" type="move" name="_top"/>
    </contour>
  </outline>
</glyph>
<glyph name="tildecomb" format="1">
  <advance width="390"/>
  <unicode hex="0303"/>
  <outline>
    <contour>
      <point x="366" y="665" type="line"/>
      <point x="340" y="639"/>
      <point x="324" y="619"/>
      <point x="309" y="619" type="curve"/>
      <point x="284" y="619"/>
      <point x="196" y="651"/>
      <point x="155" y="656" type="curve"/>
      <point x="145" y="652" type="line"/>
      <point x="84" y="585" type="line"/>
      <point x="84" y="578" type="line"/>
      <point x="107" y="553" type="line"/>
      <point x="115" y="553" type="line"/>
      <point x="141" y="578"/>
      <point x="156" y="599"/>
      <point x="172" y="599" type="curve"/>
      <point x="197" y="599"/>
      <point x="284" y="567"/>
      <point x="326" y="562" type="curve"/>
      <point x="335" y="565" type="line"/>
      <point x="396" y="633" type="line"/>
      <point x="396" y="640" type="line"/>
      <point x="373" y="665" type="line"/>
    </contour>
    <contour>
      <point x="223" y="458" type="move" name="_top"/>
    </contour>
  </outline>
</glyph>
<glyph name="dotbelowcomb" format="1">
  <advance width="390"/>
  <unicode hex="0323"/>
  <outline>
    <contour>
      <point x="125" y="-73"/>
      <point x="108" y="-91"/>
      <point x="108" y="-118" type="curve" smooth="yes"/>
      <point x="108" y="-145"/>
      <point x="124" y="-161"/>
      <point x="151" y="-161" type="curve" smooth="yes"/>
      <point x="178" y="-161"/>
      <point x="195" y="-143"/>
      <point x="195" y="-115" type="curve" smooth="yes"/>
      <point x="195" y="-89"/>
      <point x="179" y="-73"/>
      <point x="153" y="-73" type="curve" smooth="yes"/>
    </contour>
    <contour>
      <point x="166" y="0" type="move" name="_bottom"/>
    </contour>
  </outline>
</glyph>
<glyph name="commaaccentcomb" format="1">
  <advance width="390"/>
  <unicode hex="0326"/>
  <outline>
    <contour>
      <point x="143" y="-66"/>
      <point x="127" y="-74"/>
      <point x="112" y="-84" type="curve"/>
      <point x="112" y="-90" type="line"/>
      <point x="131" y="-103"/>
      <point x="142" y="-117"/>
      <point x="142" y="-134" type="curve"/>
      <point x="142" y="-161"/>
      <point x="123" y="-189"/>
      <point x="90" y="-216" type="curve"/>
      <point x="90" y="-222" type="line"/>
      <point x="114" y="-244" type="line"/>
      <point x="172" y="-202"/>
      <point x="200" y="-161"/>
      <point x="200" y="-122" type="curve"/>
      <point x="200" y="-96"/>
      <point x="186" y="-76"/>
      <point x="161" y="-60" type="curve"/>
    </contour>
    <contour>
      <point x="163" y="-3" type="move" name="_bottom"/>
    </contour>
  </outline>
</glyph>
<glyph name="Delta" format="1">
  <advance width="549"/>
  <unicode hex="0394"/>
  <outline>
    <contour>
      <point x="291" y="640" type="line"/>
      <point x="-13" y="0" type="line"/>
      <point x="501" y="0" type="line"/>
      <point x="377" y="640" type="line"/>
    </contour>
    <contour>
      <point x="416" y="64" type="line"/>
      <point x="85" y="64" type="line"/>
      <point x="318" y="562" type="line"/>
      <point x="325" y="562" type="line"/>
    </contour>
  </outline>
</glyph>
<glyph name="mu" format="1">
  <advance width="480"/>
  <unicode hex="03BC"/>
  <outline>
    <contour>
      <point x="266" y="175"/>
      <point x="186" y="73"/>
      <point x="148" y="73" type="curve" smooth="yes"/>
      <point x="135" y="73"/>
      <point x="122" y="83"/>
      <point x="126" y="112" type="curve"/>
      <point x="69" y="71" type="line"/>
      <point x="68" y="30"/>
      <point x="98" y="4"/>
      <point x="136" y="-5" type="curve"/>
      <point x="147" y="-5" type="line"/>
      <point x="208" y="41"/>
      <point x="261" y="112"/>
      <point x="328" y="226" type="curve"/>
      <point x="343" y="226" type="line"/>
      <point x="362" y="382" type="line"/>
    </contour>
    <contour>
      <point x="104" y="456" type="line"/>
      <point x="100" y="359" type="line"/>
      <point x="23" y="-194" type="line"/>
      <point x="95" y="-187" type="line"/>
      <point x="100" y="-78" type="line"/>
      <point x="127" y="112" type="line"/>
      <point x="175" y="462" type="line"/>
    </contour>
    <contour>
      <point x="360" y="456" type="line"/>
      <point x="355" y="359" type="line"/>
      <point x="304" y="-4" type="line"/>
      <point x="376" y="3" type="line"/>
      <point x="381" y="109" type="line"/>
      <point x="430" y="462" type="line"/>
    </contour>
  </outline>
</glyph>
<glyph name="guilsinglright" format="1">
  <advance width="232"/>
  <unicode hex="203A"/>
  <outline>
    <contour>
      <point x="47" y="385" type="line"/>
      <point x="44" y="376" type="line"/>
      <point x="152" y="226" type="line"/>
      <point x="8" y="77" type="line"/>
      <point x="8" y="67" type="line"/>
      <point x="42" y="47" type="line"/>
      <point x="208" y="216" type="line"/>
      <point x="210" y="232" type="line"/>
      <point x="85" y="406" type="line"/>
    </contour>
  </outline>
</glyph>
<glyph name="fraction" format="1">
  <advance width="74"/>
  <unicode hex="2044"/>
  <outline>
    <contour>
      <point x="-272" y="-60" type="line"/>
      <point x="-268" y="-72" type="line"/>
      <point x="-238" y="-91" type="line"/>
      <point x="326" y="645" type="line"/>
      <point x="322" y="658" type="line"/>
      <point x="292" y="677" type="line"/>
    </contour>
  </outline>
</glyph>
<glyph name="Euro" format="1">
  <advance width="493"/>
  <unicode hex="20AC"/>
  <outline>
    <contour>
      <point x="224" y="501"/>
      <point x="139" y="430"/>
      <point x="105" y="301" type="curve"/>
      <point x="170" y="301" type="line"/>
      <point x="195" y="398"/>
      <point x="255" y="449"/>
      <point x="346" y="449" type="curve" smooth="yes"/>
      <point x="388" y="449"/>
      <point x="430" y="436"/>
      <point x="460" y="412" type="curve"/>
      <point x="467" y="414" type="line"/>
      <point x="485" y="464" type="line"/>
      <point x="449" y="487"/>
      <point x="401" y="501"/>
      <point x="353" y="501" type="curve" smooth="yes"/>
    </contour>
    <contour>
      <point x="105" y="301" type="line"/>
      <point x="96" y="260"/>
      <point x="92" y="220"/>
      <point x="91" y="179" type="curve"/>
      <point x="157" y="179" type="line"/>
      <point x="155" y="220"/>
      <point x="157" y="260"/>
      <point x="170" y="301" type="curve"/>
    </contour>
    <contour>
      <point x="91" y="179" type="line"/>
      <point x="94" y="60"/>
      <point x="159" y="-6"/>
      <point x="282" y="-6" type="curve" smooth="yes"/>
      <point x="327" y="-6"/>
      <point x="377" y="8"/>
      <point x="422" y="34" type="curve"/>
      <point x="433" y="83" type="line"/>
      <point x="426" y="88" type="line"/>
      <point x="385" y="62"/>
      <point x="334" y="47"/>
      <point x="291" y="47" type="curve" smooth="yes"/>
      <point x="208" y="47"/>
      <point x="163" y="93"/>
      <point x="157" y="179" type="curve"/>
    </contour>
    <contour>
      <point x="34" y="320" type="line"/>
      <point x="26" y="281" type="line"/>
      <point x="29" y="276" type="line"/>
      <point x="358" y="276" type="line"/>
      <point x="367" y="316" type="line"/>
      <point x="362" y="320" type="line"/>
    </contour>
    <contour>
      <point x="21" y="206" type="line"/>
      <point x="13" y="166" type="line"/>
      <point x="16" y="161" type="line"/>
      <point x="344" y="161" type="line"/>
      <point x="352" y="201" type="line"/>
      <point x="350" y="206" type="line"/>
    </contour>
  </outline>
</glyph>
<glyph name="trademark" format="1">
  <advance width="582"/>
  <unicode hex="2122"/>
  <outline>
    <contour>
      <point x="504" y="640" type="line"/>
      <point x="488" y="605" type="line"/>
      <point x="422" y="486" type="line"/>
      <point x="420" y="486" type="line"/>
      <point x="387" y="605" type="line"/>
      <point x="380" y="640" type="line"/>
      <point x="330" y="640" type="line"/>
      <point x="275" y="405" type="line"/>
      <point x="311" y="405" type="line"/>
      <point x="327" y="481" type="line"/>
      <point x="350" y="575" type="line"/>
      <point x="353" y="575" type="line"/>
      <point x="395" y="430" type="line"/>
      <point x="429" y="430" type="line"/>
      <point x="510" y="575" type="line"/>
      <point x="514" y="575" type="line"/>
      <point x="513" y="476" type="line"/>
      <point x="510" y="405" type="line"/>
      <point x="547" y="405" type="line"/>
      <point x="552" y="640" type="line"/>
    </contour>
    <contour>
      <point x="150" y="634" type="line"/>
      <point x="132" y="475" type="line"/>
      <point x="121" y="405" type="line"/>
      <point x="163" y="405" type="line"/>
      <point x="170" y="479" type="line"/>
      <point x="191" y="634" type="line"/>
    </contour>
    <contour>
      <point x="82" y="640" type="line"/>
      <point x="75" y="609" type="line"/>
      <point x="77" y="605" type="line"/>
      <point x="124" y="607" type="line"/>
      <point x="209" y="607" type="line"/>
      <point x="254" y="605" type="line"/>
      <point x="261" y="636" type="line"/>
      <point x="259" y="640" type="line"/>
    </contour>
  </outline>
</glyph>
<glyph name="estimated" format="1">
  <advance width="795"/>
  <unicode hex="212E"/>
  <outline>
    <contour>
      <point x="217" y="651"/>
      <point x="51" y="503"/>
      <point x="51" y="319" type="curve"/>
      <point x="51" y="136"/>
      <point x="217" y="-12"/>
      <point x="420" y="-12" type="curve"/>
      <point x="537" y="-12"/>
      <point x="644" y="39"/>
      <point x="710" y="117" type="curve"/>
      <point x="660" y="117" type="line"/>
      <point x="602" y="50"/>
      <point x="516" y="8"/>
      <point x="421" y="8" type="curve"/>
      <point x="331" y="8"/>
      <point x="250" y="45"/>
      <point x="194" y="105" type="curve"/>
      <point x="189" y="111"/>
      <point x="185" y="118"/>
      <point x="185" y="126" type="curve"/>
      <point x="185" y="307" type="line"/>
      <point x="185" y="310"/>
      <point x="187" y="311"/>
      <point x="191" y="311" type="curve"/>
      <point x="787" y="311" type="line"/>
      <point x="787" y="319" type="line"/>
      <point x="787" y="503"/>
      <point x="622" y="651"/>
      <point x="420" y="651" type="curve"/>
    </contour>
    <contour>
      <point x="508" y="631"/>
      <point x="587" y="595"/>
      <point x="644" y="538" type="curve"/>
      <point x="650" y="532"/>
      <point x="654" y="525"/>
      <point x="654" y="516" type="curve"/>
      <point x="654" y="335" type="line"/>
      <point x="654" y="332"/>
      <point x="652" y="330"/>
      <point x="648" y="330" type="curve"/>
      <point x="190" y="330" type="line"/>
      <point x="187" y="330"/>
      <point x="185" y="332"/>
      <point x="185" y="335" type="curve"/>
      <point x="185" y="512" type="line"/>
      <point x="185" y="521"/>
      <point x="189" y="529"/>
      <point x="195" y="535" type="curve"/>
      <point x="252" y="594"/>
      <point x="331" y="631"/>
      <point x="420" y="631" type="curve"/>
    </contour>
  </outline>
</glyph>
<glyph name="arrowdown" format="1">
  <advance width="515"/>
  <unicode hex="2193"/>
  <outline>
    <contour>
      <point x="436" y="232" type="line"/>
      <point x="257" y="58" type="line"/>
      <point x="78" y="232" type="line"/>
      <point x="66" y="232" type="line"/>
      <point x="54" y="190" type="line"/>
      <point x="252" y="-3" type="line"/>
      <point x="263" y="-3" type="line"/>
      <point x="460" y="190" type="line"/>
      <point x="448" y="232" type="line"/>
    </contour>
    <contour>
      <point x="230" y="458" type="line"/>
      <point x="233" y="41" type="line"/>
      <point x="281" y="41" type="line"/>
      <point x="284" y="460" type="line"/>
      <point x="235" y="463" type="line"/>
    </contour>
  </outline>
</glyph>
<glyph name="summation" format="1">
  <advance width="485"/>
  <unicode hex="2211"/>
  <outline>
    <contour>
      <point x="414" y="640" type="line"/>
      <point x="168" y="640" type="line"/>
      <point x="87" y="640" type="line"/>
      <point x="80" y="583" type="line"/>
      <point x="255" y="324" type="line"/>
      <point x="11" y="53" type="line"/>
      <point x="5" y="-1" type="line"/>
      <point x="83" y="0" type="line"/>
      <point x="313" y="0" type="line"/>
      <point x="432" y="-1" type="line"/>
      <point x="445" y="59" type="line"/>
      <point x="440" y="66" type="line"/>
      <point x="335" y="61" type="line"/>
      <point x="104" y="61" type="line"/>
      <point x="336" y="317" type="line"/>
      <point x="337" y="330" type="line"/>
      <point x="170" y="578" type="line"/>
      <point x="412" y="578" type="line"/>
      <point x="504" y="574" type="line"/>
      <point x="518" y="634" type="line"/>
      <point x="513" y="641" type="line"/>
    </contour>
  </outline>
</glyph>
<glyph name="minus" format="1">
  <advance width="478"/>
  <unicode hex="2212"/>
  <outline>
    <contour>
      <point x="40" y="292" type="line"/>
      <point x="35" y="245" type="line"/>
      <point x="41" y="239" type="line"/>
      <point x="448" y="239" type="line"/>
      <point x="452" y="286" type="line"/>
      <point x="446" y="292" type="line"/>
    </contour>
  </outline>
</glyph>
<glyph name="infinity" format="1">
  <advance width="481"/>
  <unicode hex="221E"/>
  <outline>
    <contour>
      <point x="316" y="402"/>
      <point x="273" y="355"/>
      <point x="248" y="316" type="curve"/>
      <point x="229" y="362"/>
      <point x="199" y="402"/>
      <point x="137" y="402" type="curve" smooth="yes"/>
      <point x="54" y="402"/>
      <point x="-2" y="341"/>
      <point x="-2" y="245" type="curve" smooth="yes"/>
      <point x="-2" y="175"/>
      <point x="38" y="128"/>
      <point x="106" y="128" type="curve" smooth="yes"/>
      <point x="168" y="128"/>
      <point x="209" y="167"/>
      <point x="241" y="220" type="curve"/>
      <point x="264" y="166"/>
      <point x="293" y="128"/>
      <point x="353" y="128" type="curve" smooth="yes"/>
      <point x="432" y="128"/>
      <point x="491" y="185"/>
      <point x="491" y="283" type="curve" smooth="yes"/>
      <point x="491" y="353"/>
      <point x="453" y="402"/>
      <point x="385" y="402" type="curve" smooth="yes"/>
    </contour>
    <contour>
      <point x="187" y="353"/>
      <point x="208" y="316"/>
      <point x="223" y="272" type="curve"/>
      <point x="195" y="224"/>
      <point x="164" y="179"/>
      <point x="111" y="179" type="curve" smooth="yes"/>
      <point x="69" y="179"/>
      <point x="44" y="207"/>
      <point x="44" y="253" type="curve" smooth="yes"/>
      <point x="44" y="313"/>
      <point x="79" y="353"/>
      <point x="135" y="353" type="curve" smooth="yes"/>
    </contour>
    <contour>
      <point x="422" y="351"/>
      <point x="444" y="321"/>
      <point x="444" y="276" type="curve" smooth="yes"/>
      <point x="444" y="214"/>
      <point x="407" y="176"/>
      <point x="356" y="176" type="curve" smooth="yes"/>
      <point x="305" y="176"/>
      <point x="284" y="215"/>
      <point x="267" y="261" type="curve"/>
      <point x="291" y="305"/>
      <point x="321" y="351"/>
      <point x="377" y="351" type="curve" smooth="yes"/>
    </contour>
  </outline>
</glyph>
<glyph name="notequal" format="1">
  <advance width="477"/>
  <unicode hex="2260"/>
  <outline>
    <contour>
      <point x="302" y="516" type="line"/>
      <point x="121" y="13" type="line"/>
      <point x="125" y="7" type="line"/>
      <point x="174" y="7" type="line"/>
      <point x="355" y="510" type="line"/>
      <point x="350" y="516" type="line"/>
    </contour>
    <component base="equal" xOffset="-4"/>
  </outline>
</glyph>
<glyph name="L.ss01" format="1">
  <advance width="371"/>
  <outline>
    <contour>
      <point x="119" y="497" type="line"/>
      <point x="79" y="162" type="line"/>
      <point x="57" y="2" type="line"/>
      <point x="326" y="2" type="line"/>
      <point x="346" y="149" type="line"/>
      <point x="297" y="146" type="line"/>
      <point x="282" y="60" type="line"/>
      <point x="130" y="60" type="line"/>
      <point x="144" y="168" type="line"/>
      <point x="188" y="497" type="line"/>
    </contour>
    <contour>
      <point x="-119" y="33" type="line"/>
      <point x="-124" y="0" type="line"/>
      <point x="438" y="0" type="line"/>
      <point x="443" y="33" type="line"/>
    </contour>
    <contour>
      <point x="-60" y="498" type="line"/>
      <point x="-65" y="464" type="line"/>
      <point x="498" y="464" type="line"/>
      <point x="503" y="498" type="line"/>
    </contour>
  </outline>
</glyph>
<glyph name="V.ss01" format="1">
  <advance width="472"/>
  <outline>
    <contour>
      <point x="416" y="492" type="line"/>
      <point x="397" y="436" type="line"/>
      <point x="218" y="74" type="line"/>
      <point x="213" y="74" type="line"/>
      <point x="140" y="440" type="line"/>
      <point x="134" y="492" type="line"/>
      <point x="64" y="492" type="line"/>
      <point x="166" y="5" type="line"/>
      <point x="246" y="5" type="line"/>
      <point x="486" y="492" type="line" smooth="yes"/>
    </contour>
    <contour>
      <point x="-119" y="33" type="line"/>
      <point x="-124" y="0" type="line"/>
      <point x="540" y="0" type="line"/>
      <point x="545" y="33" type="line"/>
    </contour>
    <contour>
      <point x="-60" y="498" type="line"/>
      <point x="-65" y="464" type="line"/>
      <point x="599" y="464" type="line"/>
      <point x="603" y="498" type="line"/>
    </contour>
  </outline>
</glyph>
<glyph name="brevegrave" format="1">
  <advance width="390"/>
  <outline>
    <contour>
      <point x="337" y="637" type="line"/>
      <point x="318" y="598"/>
      <point x="284" y="576"/>
      <point x="239" y="576" type="curve" smooth="yes"/>
      <point x="192" y="576"/>
      <point x="163" y="598"/>
      <point x="155" y="637" type="curve"/>
      <point x="143" y="637" type="line"/>
      <point x="118" y="611" type="line"/>
      <point x="130" y="553"/>
      <point x="174" y="521"/>
      <point x="239" y="521" type="curve" smooth="yes"/>
      <point x="296" y="521"/>
      <point x="342" y="553"/>
      <point x="367" y="611" type="curve"/>
      <point x="349" y="637" type="line"/>
    </contour>
    <contour>
      <point x="249" y="690"/>
      <point x="222" y="724"/>
      <point x="193" y="761" type="curve"/>
      <point x="185" y="762" type="line"/>
      <point x="150" y="738" type="line"/>
      <point x="150" y="730" type="line"/>
      <point x="181" y="697"/>
      <point x="213" y="666"/>
      <point x="245" y="633" type="curve"/>
      <point x="254" y="633" type="line"/>
      <point x="280" y="655" type="line"/>
    </contour>
    <contour>
      <point x="222" y="458" type="move" name="_top"/>
    </contour>
  </outline>
</glyph>
<glyph name="c.sups" format="1">
  <advance width="240"/>
  <outline>
    <contour>
      <point x="228" y="646" type="line"/>
      <point x="113" y="646"/>
      <point x="64" y="555"/>
      <point x="64" y="444" type="curve" smooth="yes"/>
      <point x="64" y="367"/>
      <point x="90" y="340"/>
      <point x="146" y="333" type="curve"/>
      <point x="155" y="333" type="line"/>
      <point x="196" y="342"/>
      <point x="226" y="362"/>
      <point x="255" y="412" type="curve"/>
      <point x="234" y="438" type="line"/>
      <point x="226" y="438" type="line"/>
      <point x="202" y="396"/>
      <point x="180" y="383"/>
      <point x="160" y="383" type="curve" smooth="yes"/>
      <point x="134" y="383"/>
      <point x="121" y="402"/>
      <point x="121" y="454" type="curve" smooth="yes"/>
      <point x="121" y="546"/>
      <point x="152" y="600"/>
      <point x="207" y="600" type="curve"/>
      <point x="220" y="600"/>
      <point x="233" y="593"/>
      <point x="247" y="579" type="curve"/>
      <point x="261" y="581" type="line"/>
      <point x="277" y="624" type="line"/>
      <point x="274" y="631" type="line"/>
      <point x="228" y="646" type="line"/>
    </contour>
    <contour>
      <point x="184" y="0" type="move" name="bottom"/>
    </contour>
    <contour>
      <point x="194" y="388" type="move" name="top"/>
    </contour>
  </outline>
</glyph>
<glyph name="caron.cap" format="1">
  <advance width="390"/>
  <outline>
    <contour>
      <point x="350" y="664" type="line"/>
      <point x="311" y="642"/>
      <point x="275" y="621"/>
      <point x="239" y="598" type="curve"/>
      <point x="208" y="621"/>
      <point x="178" y="642"/>
      <point x="146" y="664" type="curve"/>
      <point x="138" y="664" type="line"/>
      <point x="118" y="632" type="line"/>
      <point x="155" y="604"/>
      <point x="191" y="573"/>
      <point x="224" y="542" type="curve"/>
      <point x="246" y="542" type="line"/>
      <point x="284" y="573"/>
      <point x="325" y="604"/>
      <point x="370" y="632" type="curve"/>
      <point x="359" y="664" type="line"/>
    </contour>
    <contour>
      <point x="227" y="458" type="move" name="_top"/>
    </contour>
  </outline>
</glyph>
<glyph name="circumflex.cap" format="1">
  <advance width="390"/>
  <outline>
    <contour>
      <point x="133" y="550" type="line"/>
      <point x="171" y="572"/>
      <point x="207" y="594"/>
      <point x="243" y="617" type="curve"/>
      <point x="274" y="594"/>
      <point x="304" y="572"/>
      <point x="336" y="550" type="curve"/>
      <point x="345" y="550" type="line"/>
      <point x="364" y="583" type="line"/>
      <point x="328" y="611"/>
      <point x="291" y="641"/>
      <point x="258" y="672" type="curve"/>
      <point x="236" y="672" type="line"/>
      <point x="198" y="641"/>
      <point x="157" y="611"/>
      <point x="112" y="583" type="curve"/>
      <point x="124" y="550" type="line"/>
    </contour>
    <contour>
      <point x="220" y="458" type="move" name="_top"/>
    </contour>
  </outline>
</glyph>
<glyph name="circumflextilde" format="1">
  <advance width="390"/>
  <outline>
    <contour>
      <point x="223" y="654" type="line"/>
      <point x="185" y="623"/>
      <point x="144" y="592"/>
      <point x="99" y="564" type="curve"/>
      <point x="111" y="532" type="line"/>
      <point x="120" y="532" type="line"/>
      <point x="158" y="554"/>
      <point x="194" y="575"/>
      <point x="230" y="598" type="curve"/>
      <point x="261" y="575"/>
      <point x="291" y="554"/>
      <point x="323" y="532" type="curve"/>
      <point x="332" y="532" type="line"/>
      <point x="351" y="564" type="line"/>
      <point x="315" y="592"/>
      <point x="278" y="623"/>
      <point x="245" y="654" type="curve"/>
    </contour>
    <contour>
      <point x="373" y="781" type="line"/>
      <point x="348" y="756"/>
      <point x="334" y="736"/>
      <point x="320" y="736" type="curve"/>
      <point x="296" y="736"/>
      <point x="213" y="766"/>
      <point x="174" y="771" type="curve"/>
      <point x="165" y="768" type="line"/>
      <point x="108" y="704" type="line"/>
      <point x="108" y="696" type="line"/>
      <point x="130" y="673" type="line"/>
      <point x="138" y="673" type="line"/>
      <point x="161" y="697"/>
      <point x="176" y="717"/>
      <point x="190" y="717" type="curve"/>
      <point x="215" y="717"/>
      <point x="297" y="686"/>
      <point x="336" y="681" type="curve"/>
      <point x="345" y="684" type="line"/>
      <point x="402" y="750" type="line"/>
      <point x="402" y="757" type="line"/>
      <point x="380" y="781" type="line"/>
    </contour>
    <contour>
      <point x="205" y="458" type="move" name="_top"/>
    </contour>
  </outline>
</glyph>
<glyph name="d.sups" format="1">
  <advance width="311"/>
  <outline>
    <contour>
      <point x="222" y="644" type="line"/>
      <point x="218" y="644" type="line"/>
      <point x="113" y="626"/>
      <point x="61" y="530"/>
      <point x="61" y="431" type="curve" smooth="yes"/>
      <point x="61" y="379"/>
      <point x="76" y="350"/>
      <point x="121" y="333" type="curve"/>
      <point x="131" y="333" type="line"/>
      <point x="167" y="367"/>
      <point x="202" y="415"/>
      <point x="230" y="470" type="curve"/>
      <point x="237" y="470" type="line"/>
      <point x="256" y="569" type="line"/>
      <point x="202" y="453"/>
      <point x="149" y="389"/>
      <point x="138" y="389" type="curve" smooth="yes"/>
      <point x="130" y="389"/>
      <point x="117" y="406"/>
      <point x="117" y="453" type="curve" smooth="yes"/>
      <point x="117" y="534"/>
      <point x="150" y="600"/>
      <point x="210" y="600" type="curve"/>
      <point x="272" y="590" type="line"/>
      <point x="302" y="634" type="line"/>
      <point x="222" y="644" type="line"/>
    </contour>
    <contour>
      <point x="336" y="810" type="line"/>
      <point x="274" y="805" type="line"/>
      <point x="271" y="738" type="line"/>
      <point x="217" y="334" type="line"/>
      <point x="279" y="338" type="line"/>
      <point x="284" y="410" type="line"/>
      <point x="336" y="810" type="line"/>
    </contour>
    <contour>
      <point x="316" y="0" type="move" name="bottom"/>
    </contour>
    <contour>
      <point x="341" y="194" type="move" name="center"/>
    </contour>
    <contour>
      <point x="317" y="388" type="move" name="top"/>
    </contour>
    <contour>
      <point x="409" y="388" type="move" name="topright"/>
    </contour>
  </outline>
</glyph>
<glyph name="dieresisacute" format="1">
  <advance width="390"/>
  <outline>
    <contour>
      <point x="266" y="760"/>
      <point x="201" y="740"/>
      <point x="134" y="720" type="curve"/>
      <point x="141" y="684" type="line"/>
      <point x="150" y="679" type="line"/>
      <point x="218" y="694"/>
      <point x="284" y="710"/>
      <point x="355" y="729" type="curve"/>
      <point x="360" y="738" type="line"/>
      <point x="347" y="784" type="line"/>
      <point x="340" y="788" type="line"/>
    </contour>
    <contour>
      <point x="135" y="626"/>
      <point x="119" y="610"/>
      <point x="119" y="585" type="curve" smooth="yes"/>
      <point x="119" y="560"/>
      <point x="134" y="546"/>
      <point x="157" y="546" type="curve" smooth="yes"/>
      <point x="183" y="546"/>
      <point x="198" y="562"/>
      <point x="198" y="587" type="curve" smooth="yes"/>
      <point x="198" y="611"/>
      <point x="184" y="626"/>
      <point x="160" y="626" type="curve" smooth="yes"/>
    </contour>
    <contour>
      <point x="291" y="626"/>
      <point x="275" y="610"/>
      <point x="275" y="585" type="curve" smooth="yes"/>
      <point x="275" y="560"/>
      <point x="290" y="546"/>
      <point x="313" y="546" type="curve" smooth="yes"/>
      <point x="339" y="546"/>
      <point x="354" y="562"/>
      <point x="354" y="587" type="curve" smooth="yes"/>
      <point x="354" y="611"/>
      <point x="340" y="626"/>
      <point x="316" y="626" type="curve" smooth="yes"/>
    </contour>
    <contour>
      <point x="222" y="458" type="move" name="_top"/>
    </contour>
  </outline>
</glyph>
<glyph name="dieresiscaron" format="1">
  <advance width="390"/>
  <outline>
    <contour>
      <point x="358" y="772" type="line"/>
      <point x="319" y="750"/>
      <point x="283" y="728"/>
      <point x="247" y="705" type="curve"/>
      <point x="216" y="728"/>
      <point x="186" y="750"/>
      <point x="154" y="772" type="curve"/>
      <point x="146" y="772" type="line"/>
      <point x="126" y="739" type="line"/>
      <point x="163" y="711"/>
      <point x="199" y="681"/>
      <point x="232" y="650" type="curve"/>
      <point x="254" y="650" type="line"/>
      <point x="292" y="681"/>
      <point x="333" y="711"/>
      <point x="378" y="739" type="curve"/>
      <point x="367" y="772" type="line"/>
    </contour>
    <contour>
      <point x="137" y="626"/>
      <point x="121" y="610"/>
      <point x="121" y="585" type="curve" smooth="yes"/>
      <point x="121" y="560"/>
      <point x="136" y="546"/>
      <point x="159" y="546" type="curve" smooth="yes"/>
      <point x="185" y="546"/>
      <point x="200" y="562"/>
      <point x="200" y="587" type="curve" smooth="yes"/>
      <point x="200" y="611"/>
      <point x="186" y="626"/>
      <point x="162" y="626" type="curve" smooth="yes"/>
    </contour>
    <contour>
      <point x="293" y="626"/>
      <point x="277" y="610"/>
      <point x="277" y="585" type="curve" smooth="yes"/>
      <point x="277" y="560"/>
      <point x="292" y="546"/>
      <point x="315" y="546" type="curve" smooth="yes"/>
      <point x="341" y="546"/>
      <point x="356" y="562"/>
      <point x="356" y="587" type="curve" smooth="yes"/>
      <point x="356" y="611"/>
      <point x="342" y="626"/>
      <point x="318" y="626" type="curve" smooth="yes"/>
    </contour>
    <contour>
      <point x="222" y="458" type="move" name="_top"/>
    </contour>
  </outline>
</glyph>
<glyph name="five.tf" format="1">
  <advance width="475"/>
  <outline>
    <contour>
      <point x="352" y="586" type="line"/>
      <point x="212" y="586" type="line"/>
      <point x="158" y="588" type="line"/>
      <point x="144" y="576" type="line"/>
      <point x="112" y="318" type="line"/>
      <point x="118" y="311" type="line"/>
      <point x="213" y="293" type="line" smooth="yes"/>
      <point x="291" y="278"/>
      <point x="330" y="245"/>
      <point x="330" y="191" type="curve" smooth="yes"/>
      <point x="330" y="109"/>
      <point x="259" y="50"/>
      <point x="154" y="50" type="curve" smooth="yes"/>
      <point x="122" y="50"/>
      <point x="87" y="57"/>
      <point x="51" y="73" type="curve"/>
      <point x="43" y="66" type="line"/>
      <point x="41" y="-0" type="line"/>
      <point x="72" y="-6"/>
      <point x="108" y="-10"/>
      <point x="139" y="-10" type="curve" smooth="yes"/>
      <point x="287" y="-10"/>
      <point x="401" y="83"/>
      <point x="401" y="200" type="curve" smooth="yes"/>
      <point x="401" y="280"/>
      <point x="347" y="329"/>
      <point x="240" y="351" type="curve" smooth="yes"/>
      <point x="176" y="364" type="line"/>
      <point x="197" y="524" type="line"/>
      <point x="355" y="524" type="line"/>
      <point x="426" y="519" type="line"/>
      <point x="433" y="524" type="line"/>
      <point x="447" y="584" type="line"/>
      <point x="443" y="590" type="line"/>
    </contour>
  </outline>
</glyph>
<glyph name="four.lf" format="1">
  <advance width="491"/>
  <outline>
    <contour>
      <point x="323" y="586" type="line"/>
      <point x="28" y="227" type="line"/>
      <point x="23" y="176" type="line"/>
      <point x="28" y="169" type="line"/>
      <point x="92" y="171" type="line"/>
      <point x="347" y="171" type="line"/>
      <point x="437" y="169" type="line"/>
      <point x="448" y="222" type="line"/>
      <point x="444" y="229" type="line"/>
      <point x="96" y="229" type="line"/>
      <point x="316" y="494" type="line"/>
      <point x="323" y="494" type="line"/>
      <point x="287" y="212" type="line"/>
      <point x="257" y="0" type="line"/>
      <point x="262" y="-6" type="line"/>
      <point x="319" y="-1" type="line"/>
      <point x="324" y="6" type="line"/>
      <point x="345" y="201" type="line"/>
      <point x="394" y="586" type="line"/>
    </contour>
  </outline>
</glyph>
<glyph name="grave.cap" format="1">
  <advance width="390"/>
  <outline>
    <contour>
      <point x="151" y="679" type="line"/>
      <point x="131" y="635" type="line"/>
      <point x="134" y="627" type="line"/>
      <point x="201" y="595"/>
      <point x="263" y="568"/>
      <point x="327" y="541" type="curve"/>
      <point x="336" y="545" type="line"/>
      <point x="350" y="579" type="line"/>
      <point x="288" y="610"/>
      <point x="227" y="641"/>
      <point x="159" y="681" type="curve"/>
    </contour>
    <contour>
      <point x="222" y="458" type="move" name="_top"/>
    </contour>
  </outline>
</glyph>
<glyph name="i.sups" format="1">
  <advance width="156"/>
  <outline>
    <contour>
      <point x="158" y="644" type="line"/>
      <point x="98" y="640" type="line"/>
      <point x="93" y="573" type="line"/>
      <point x="62" y="334" type="line"/>
      <point x="123" y="338" type="line"/>
      <point x="128" y="410" type="line"/>
      <point x="158" y="644" type="line"/>
    </contour>
    <contour>
      <point x="124" y="788"/>
      <point x="108" y="771"/>
      <point x="108" y="746" type="curve" smooth="yes"/>
      <point x="108" y="728"/>
      <point x="121" y="718"/>
      <point x="139" y="718" type="curve" smooth="yes"/>
      <point x="163" y="718"/>
      <point x="178" y="735"/>
      <point x="178" y="759" type="curve" smooth="yes"/>
      <point x="178" y="777"/>
      <point x="167" y="788"/>
      <point x="148" y="788" type="curve" smooth="yes"/>
    </contour>
    <contour>
      <point x="6" y="0" type="move" name="_top"/>
    </contour>
    <contour>
      <point x="6" y="0" type="move" name="ogonek"/>
    </contour>
    <contour>
      <point x="6" y="0" type="move" name="top"/>
    </contour>
  </outline>
</glyph>
<glyph name="k.sups" format="1">
  <advance width="323"/>
  <outline>
    <contour>
      <point x="262" y="644" type="line"/>
      <point x="225" y="620"/>
      <point x="191" y="572"/>
      <point x="154" y="506" type="curve"/>
      <point x="143" y="506" type="line"/>
      <point x="128" y="418" type="line"/>
      <point x="185" y="530"/>
      <point x="227" y="585"/>
      <point x="251" y="585" type="curve" smooth="yes"/>
      <point x="259" y="585"/>
      <point x="269" y="577"/>
      <point x="269" y="559" type="curve" smooth="yes"/>
      <point x="269" y="528"/>
      <point x="239" y="494"/>
      <point x="189" y="464" type="curve"/>
      <point x="186" y="453" type="line"/>
      <point x="206" y="413"/>
      <point x="228" y="372"/>
      <point x="251" y="332" type="curve"/>
      <point x="258" y="330" type="line"/>
      <point x="307" y="338" type="line"/>
      <point x="311" y="343" type="line"/>
      <point x="286" y="379"/>
      <point x="263" y="418"/>
      <point x="241" y="457" type="curve"/>
      <point x="296" y="493"/>
      <point x="330" y="535"/>
      <point x="330" y="581" type="curve" smooth="yes"/>
      <point x="330" y="619"/>
      <point x="305" y="638"/>
      <point x="271" y="644" type="curve"/>
    </contour>
    <contour>
      <point x="187" y="810" type="line"/>
      <point x="125" y="805" type="line"/>
      <point x="122" y="738" type="line"/>
      <point x="68" y="334" type="line"/>
      <point x="128" y="338" type="line"/>
      <point x="134" y="410" type="line"/>
      <point x="187" y="810" type="line"/>
    </contour>
    <contour>
      <point x="6" y="0" type="move" name="bottom"/>
    </contour>
    <contour>
      <point x="6" y="0" type="move" name="top"/>
    </contour>
    <contour>
      <point x="6" y="0" type="move" name="topright"/>
    </contour>
  </outline>
</glyph>
<glyph name="o.sups" format="1">
  <advance width="296"/>
  <outline>
    <contour>
      <point x="213" y="647" type="line"/>
      <point x="120" y="643"/>
      <point x="62" y="558"/>
      <point x="62" y="438" type="curve" smooth="yes"/>
      <point x="62" y="372"/>
      <point x="90" y="338"/>
      <point x="139" y="333" type="curve"/>
      <point x="145" y="332" type="line"/>
      <point x="239" y="337"/>
      <point x="296" y="420"/>
      <point x="296" y="545" type="curve" smooth="yes"/>
      <point x="296" y="608"/>
      <point x="269" y="639"/>
      <point x="220" y="647" type="curve"/>
      <point x="213" y="647" type="line"/>
    </contour>
    <contour>
      <point x="229" y="602"/>
      <point x="238" y="583"/>
      <point x="238" y="540" type="curve" smooth="yes"/>
      <point x="238" y="439"/>
      <point x="210" y="376"/>
      <point x="156" y="376" type="curve" smooth="yes"/>
      <point x="130" y="376"/>
      <point x="119" y="394"/>
      <point x="119" y="438" type="curve" smooth="yes"/>
      <point x="119" y="536"/>
      <point x="148" y="602"/>
      <point x="204" y="602" type="curve" smooth="yes"/>
    </contour>
  </outline>
</glyph>
<glyph name="puso.cap" format="1">
  <advance width="105"/>
  <outline>
    <contour>
      <point x="69" y="608" type="line"/>
      <point x="42" y="350" type="line"/>
      <point x="47" y="341" type="line"/>
      <point x="87" y="349" type="line"/>
      <point x="132" y="605" type="line"/>
      <point x="128" y="614" type="line"/>
    </contour>
    <contour>
      <point x="54" y="153" type="move"/>
    </contour>
  </outline>
</glyph>
<glyph name="seven.dnom" format="1">
  <advance width="300"/>
  <outline>
    <contour>
      <point x="36" y="329" type="line"/>
      <point x="39" y="322" type="line"/>
      <point x="93" y="326" type="line"/>
      <point x="220" y="326" type="line"/>
      <point x="36" y="17" type="line"/>
      <point x="39" y="7" type="line"/>
      <point x="88" y="-7" type="line"/>
      <point x="132" y="76" type="line"/>
      <point x="284" y="332" type="line"/>
      <point x="290" y="378" type="line"/>
      <point x="260" y="377" type="line"/>
      <point x="111" y="377" type="line"/>
      <point x="48" y="378" type="line"/>
    </contour>
  </outline>
</glyph>
<glyph name="six.dnom" format="1">
  <advance width="336"/>
  <outline>
    <contour>
      <point x="243" y="382" type="line"/>
      <point x="114" y="332"/>
      <point x="34" y="245"/>
      <point x="24" y="137" type="curve"/>
      <point x="16" y="47"/>
      <point x="60" y="-5"/>
      <point x="141" y="-5" type="curve"/>
      <point x="231" y="-5"/>
      <point x="279" y="47"/>
      <point x="286" y="119" type="curve"/>
      <point x="291" y="182"/>
      <point x="255" y="227"/>
      <point x="185" y="227" type="curve" smooth="yes"/>
      <point x="155" y="227"/>
      <point x="128" y="217"/>
      <point x="103" y="201" type="curve"/>
      <point x="93" y="215" type="line"/>
      <point x="79" y="152" type="line"/>
      <point x="106" y="171"/>
      <point x="135" y="182"/>
      <point x="165" y="182" type="curve" smooth="yes"/>
      <point x="209" y="182"/>
      <point x="232" y="158"/>
      <point x="228" y="113" type="curve"/>
      <point x="222" y="63"/>
      <point x="194" y="36"/>
      <point x="146" y="36" type="curve"/>
      <point x="96" y="36"/>
      <point x="77" y="72"/>
      <point x="83" y="138" type="curve"/>
      <point x="93" y="240"/>
      <point x="151" y="302"/>
      <point x="283" y="349" type="curve"/>
      <point x="284" y="355" type="line"/>
      <point x="248" y="382" type="line"/>
    </contour>
  </outline>
</glyph>
<glyph name="six.tf" format="1">
  <advance width="475"/>
  <outline>
    <contour>
      <point x="391" y="594" type="line"/>
      <point x="129" y="498"/>
      <point x="45" y="317"/>
      <point x="45" y="179" type="curve" smooth="yes"/>
      <point x="45" y="66"/>
      <point x="105" y="-8"/>
      <point x="222" y="-8" type="curve"/>
      <point x="381" y="-8"/>
      <point x="423" y="121"/>
      <point x="423" y="195" type="curve" smooth="yes"/>
      <point x="423" y="282"/>
      <point x="361" y="348"/>
      <point x="270" y="348" type="curve" smooth="yes"/>
      <point x="222" y="348"/>
      <point x="183" y="331"/>
      <point x="141" y="303" type="curve"/>
      <point x="129" y="319" type="line"/>
      <point x="109" y="225" type="line"/>
      <point x="154" y="269"/>
      <point x="207" y="292"/>
      <point x="256" y="292" type="curve" smooth="yes"/>
      <point x="320" y="292"/>
      <point x="355" y="254"/>
      <point x="355" y="187" type="curve" smooth="yes"/>
      <point x="355" y="125"/>
      <point x="327" y="48"/>
      <point x="226" y="48" type="curve"/>
      <point x="138" y="48"/>
      <point x="114" y="108"/>
      <point x="114" y="185" type="curve" smooth="yes"/>
      <point x="114" y="307"/>
      <point x="167" y="460"/>
      <point x="451" y="551" type="curve"/>
      <point x="452" y="559" type="line"/>
      <point x="396" y="594" type="line"/>
    </contour>
  </outline>
</glyph>
<glyph name="square2" format="1">
  <advance width="636"/>
  <outline>
    <contour>
      <point x="0" y="636" type="line"/>
      <point x="0" y="0" type="line"/>
      <point x="636" y="0" type="line"/>
      <point x="636" y="636" type="line"/>
    </contour>
  </outline>
</glyph>
<glyph name="three.dnom" format="1">
  <advance width="307"/>
  <outline>
    <contour>
      <point x="111" y="381"/>
      <point x="81" y="368"/>
      <point x="42" y="342" type="curve"/>
      <point x="47" y="299" type="line"/>
      <point x="54" y="299" type="line"/>
      <point x="86" y="321"/>
      <point x="113" y="331"/>
      <point x="139" y="331" type="curve" smooth="yes"/>
      <point x="170" y="331"/>
      <point x="190" y="316"/>
      <point x="190" y="290" type="curve" smooth="yes"/>
      <point x="190" y="250"/>
      <point x="143" y="219"/>
      <point x="107" y="219" type="curve" smooth="yes"/>
      <point x="76" y="219" type="line"/>
      <point x="70" y="176" type="line"/>
      <point x="73" y="172" type="line"/>
      <point x="115" y="172" type="line"/>
      <point x="161" y="170"/>
      <point x="186" y="152"/>
      <point x="186" y="117" type="curve" smooth="yes"/>
      <point x="186" y="73"/>
      <point x="144" y="44"/>
      <point x="82" y="44" type="curve" smooth="yes"/>
      <point x="61" y="44"/>
      <point x="38" y="48"/>
      <point x="15" y="52" type="curve"/>
      <point x="11" y="49" type="line"/>
      <point x="8" y="3" type="line"/>
      <point x="29" y="-2"/>
      <point x="55" y="-4"/>
      <point x="75" y="-4" type="curve" smooth="yes"/>
      <point x="176" y="-4"/>
      <point x="247" y="47"/>
      <point x="247" y="120" type="curve" smooth="yes"/>
      <point x="247" y="162"/>
      <point x="224" y="190"/>
      <point x="178" y="202" type="curve"/>
      <point x="179" y="205" type="line"/>
      <point x="230" y="226"/>
      <point x="255" y="265"/>
      <point x="255" y="301" type="curve" smooth="yes"/>
      <point x="255" y="349"/>
      <point x="207" y="381"/>
      <point x="149" y="381" type="curve" smooth="yes"/>
    </contour>
  </outline>
</glyph>
<glyph name="tilde.i" format="1">
  <advance width="390"/>
  <outline>
    <contour>
      <point x="349" y="662" type="line"/>
      <point x="327" y="637"/>
      <point x="314" y="617"/>
      <point x="299" y="617" type="curve"/>
      <point x="278" y="617"/>
      <point x="203" y="648"/>
      <point x="166" y="653" type="curve"/>
      <point x="158" y="649" type="line"/>
      <point x="103" y="583" type="line"/>
      <point x="103" y="576" type="line"/>
      <point x="126" y="551" type="line"/>
      <point x="133" y="551" type="line"/>
      <point x="156" y="576"/>
      <point x="169" y="596"/>
      <point x="184" y="596" type="curve"/>
      <point x="205" y="596"/>
      <point x="279" y="565"/>
      <point x="316" y="560" type="curve"/>
      <point x="325" y="563" type="line"/>
      <point x="380" y="630" type="line"/>
      <point x="380" y="637" type="line"/>
      <point x="356" y="662" type="line"/>
    </contour>
    <contour>
      <point x="223" y="458" type="move" name="_top"/>
    </contour>
  </outline>
</glyph>
<glyph name="two.dnom" format="1">
  <advance width="348"/>
  <outline>
    <contour>
      <point x="141" y="380"/>
      <point x="99" y="361"/>
      <point x="55" y="325" type="curve"/>
      <point x="60" y="277" type="line"/>
      <point x="67" y="277" type="line"/>
      <point x="100" y="309"/>
      <point x="140" y="329"/>
      <point x="173" y="329" type="curve" smooth="yes"/>
      <point x="206" y="329"/>
      <point x="223" y="310"/>
      <point x="223" y="287" type="curve" smooth="yes"/>
      <point x="223" y="253"/>
      <point x="188" y="216"/>
      <point x="129" y="155" type="curve" smooth="yes"/>
      <point x="16" y="40" type="line"/>
      <point x="11" y="2" type="line"/>
      <point x="15" y="-1" type="line"/>
      <point x="42" y="0" type="line"/>
      <point x="208" y="0" type="line"/>
      <point x="288" y="-3" type="line"/>
      <point x="300" y="47" type="line"/>
      <point x="298" y="53" type="line"/>
      <point x="233" y="50" type="line"/>
      <point x="102" y="50" type="line"/>
      <point x="101" y="52" type="line"/>
      <point x="183" y="140" type="line" smooth="yes"/>
      <point x="254" y="215"/>
      <point x="289" y="257"/>
      <point x="289" y="301" type="curve" smooth="yes"/>
      <point x="289" y="349"/>
      <point x="243" y="380"/>
      <point x="187" y="380" type="curve" smooth="yes"/>
    </contour>
  </outline>
</glyph>
<glyph name="two.tf" format="1">
  <advance width="475"/>
  <outline>
    <contour>
      <point x="206" y="592"/>
      <point x="144" y="557"/>
      <point x="89" y="502" type="curve"/>
      <point x="94" y="442" type="line"/>
      <point x="103" y="442" type="line"/>
      <point x="152" y="496"/>
      <point x="207" y="527"/>
      <point x="261" y="527" type="curve" smooth="yes"/>
      <point x="315" y="527"/>
      <point x="340" y="495"/>
      <point x="340" y="457" type="curve" smooth="yes"/>
      <point x="340" y="401"/>
      <point x="286" y="337"/>
      <point x="198" y="240" type="curve" smooth="yes"/>
      <point x="26" y="50" type="line"/>
      <point x="20" y="2" type="line"/>
      <point x="24" y="-2" type="line"/>
      <point x="65" y="0" type="line"/>
      <point x="309" y="0" type="line"/>
      <point x="416" y="-4" type="line"/>
      <point x="434" y="59" type="line"/>
      <point x="429" y="66" type="line"/>
      <point x="337" y="60" type="line"/>
      <point x="127" y="60" type="line"/>
      <point x="126" y="64" type="line"/>
      <point x="263" y="220" type="line" smooth="yes"/>
      <point x="371" y="341"/>
      <point x="415" y="396"/>
      <point x="415" y="462" type="curve" smooth="yes"/>
      <point x="415" y="538"/>
      <point x="355" y="592"/>
      <point x="272" y="592" type="curve" smooth="yes"/>
    </contour>
  </outline>
</glyph>
<glyph name="u.sups" format="1">
  <advance width="328"/>
  <outline>
    <contour>
      <point x="165" y="643" type="line"/>
      <point x="102" y="639" type="line"/>
      <point x="97" y="568" type="line"/>
      <point x="71" y="405" type="line"/>
      <point x="70" y="395" type="line"/>
      <point x="69" y="363"/>
      <point x="93" y="337"/>
      <point x="128" y="331" type="curve"/>
      <point x="134" y="331" type="line"/>
      <point x="170" y="359"/>
      <point x="203" y="408"/>
      <point x="238" y="470" type="curve"/>
      <point x="255" y="470" type="line"/>
      <point x="266" y="561" type="line"/>
      <point x="209" y="451"/>
      <point x="165" y="392"/>
      <point x="147" y="392" type="curve" smooth="yes"/>
      <point x="138" y="392"/>
      <point x="130" y="404"/>
      <point x="130" y="422" type="curve"/>
      <point x="131" y="431" type="line"/>
      <point x="165" y="643" type="line"/>
    </contour>
    <contour>
      <point x="323" y="644" type="line"/>
      <point x="261" y="640" type="line"/>
      <point x="258" y="573" type="line"/>
      <point x="226" y="334" type="line"/>
      <point x="287" y="338" type="line"/>
      <point x="293" y="410" type="line"/>
      <point x="323" y="644" type="line"/>
    </contour>
    <contour>
      <point x="6" y="0" type="move" name="bottom"/>
    </contour>
    <contour>
      <point x="6" y="0" type="move" name="ogonek"/>
    </contour>
    <contour>
      <point x="6" y="0" type="move" name="top"/>
    </contour>
  </outline>
</glyph>
<glyph name="v.sups" format="1">
  <advance width="286"/>
  <outline>
    <contour>
      <point x="235" y="632" type="line"/>
      <point x="243" y="618"/>
      <point x="247" y="605"/>
      <point x="247" y="591" type="curve" smooth="yes"/>
      <point x="247" y="570"/>
      <point x="240" y="548"/>
      <point x="226" y="521" type="curve" smooth="yes"/>
      <point x="164" y="400" type="line"/>
      <point x="158" y="400" type="line"/>
      <point x="147" y="591" type="line"/>
      <point x="145" y="644" type="line"/>
      <point x="84" y="639" type="line"/>
      <point x="115" y="337" type="line"/>
      <point x="182" y="337" type="line"/>
      <point x="277" y="504" type="line" smooth="yes"/>
      <point x="295" y="539"/>
      <point x="305" y="566"/>
      <point x="305" y="593" type="curve" smooth="yes"/>
      <point x="305" y="611"/>
      <point x="300" y="628"/>
      <point x="291" y="645" type="curve"/>
    </contour>
  </outline>
</glyph>
<glyph name="zero.tosf" format="1">
  <advance width="479"/>
  <outline>
    <contour>
      <point x="125" y="503"/>
      <point x="35" y="386"/>
      <point x="35" y="197" type="curve" smooth="yes"/>
      <point x="35" y="67"/>
      <point x="96" y="-7"/>
      <point x="207" y="-7" type="curve" smooth="yes"/>
      <point x="359" y="-7"/>
      <point x="447" y="109"/>
      <point x="447" y="299" type="curve" smooth="yes"/>
      <point x="447" y="430"/>
      <point x="388" y="503"/>
      <point x="278" y="503" type="curve" smooth="yes"/>
    </contour>
    <contour>
      <point x="346" y="435"/>
      <point x="389" y="382"/>
      <point x="389" y="282" type="curve" smooth="yes"/>
      <point x="389" y="140"/>
      <point x="329" y="60"/>
      <point x="220" y="60" type="curve" smooth="yes"/>
      <point x="138" y="60"/>
      <point x="96" y="111"/>
      <point x="96" y="208" type="curve" smooth="yes"/>
      <point x="96" y="352"/>
      <point x="154" y="435"/>
      <point x="264" y="435" type="curve" smooth="yes"/>
    </contour>
  </outline>
</glyph>
